<svg xmlns="http://www.w3.org/2000/svg" xmlns:xlink="http://www.w3.org/1999/xlink" width="499" zoomAndPan="magnify" viewBox="0 0 374.25 60.75" height="81" preserveAspectRatio="xMidYMid meet" version="1.0"><defs><g/><clipPath id="1176811f06"><path d="M 0.394531 0 L 373.109375 0 L 373.109375 60.5 L 0.394531 60.5 Z M 0.394531 0 " clip-rule="nonzero"/></clipPath><clipPath id="45643f2d84"><path d="M 138 12.46875 L 163 12.46875 L 163 48.328125 L 138 48.328125 Z M 138 12.46875 " clip-rule="nonzero"/></clipPath><clipPath id="1cec7ea6cf"><path d="M 127.175781 25 L 131 25 L 131 36 L 127.175781 36 Z M 127.175781 25 " clip-rule="nonzero"/></clipPath><clipPath id="4e7659b718"><path d="M 166 25 L 169.363281 25 L 169.363281 36 L 166 36 Z M 166 25 " clip-rule="nonzero"/></clipPath></defs><g clip-path="url(#1176811f06)"><path fill="#ffffff" d="M 0.394531 0 L 373.109375 0 L 373.109375 60.5 L 0.394531 60.5 Z M 0.394531 0 " fill-opacity="1" fill-rule="nonzero"/><path fill="#1a1a1a" d="M 0.394531 0 L 373.109375 0 L 373.109375 60.5 L 0.394531 60.5 Z M 0.394531 0 " fill-opacity="1" fill-rule="nonzero"/></g><g fill="#ffffff" fill-opacity="1"><g transform="translate(71.398661, 44.470925)"><g><path d="M 18.09375 -12.09375 L 26.09375 -35.875 L 35.515625 -35.875 L 22.1875 0 L 13.84375 0 L 0.515625 -35.875 L 10.046875 -35.875 Z M 18.09375 -12.09375 "/></g></g></g><g fill="#ffffff" fill-opacity="1"><g transform="translate(107.399853, 44.470925)"><g><path d="M 13.421875 0 L 4.453125 0 L 4.453125 -35.875 L 13.421875 -35.875 Z M 13.421875 0 "/></g></g></g><g fill="#ffffff" fill-opacity="1"><g transform="translate(125.222507, 44.470925)"><g/></g></g><g fill="#ffffff" fill-opacity="1"><g transform="translate(125.222507, 44.470925)"><g/></g></g><g fill="#ffffff" fill-opacity="1"><g transform="translate(140.790574, 44.470925)"><g/></g></g><g fill="#ffffff" fill-opacity="1"><g transform="translate(156.358641, 44.470925)"><g/></g></g><g fill="#ffffff" fill-opacity="1"><g transform="translate(171.929151, 44.470925)"><g/></g></g><g fill="#ffffff" fill-opacity="1"><g transform="translate(171.929151, 44.470925)"><g><path d="M 13.171875 -14.609375 L 13.171875 -7.640625 L 27.875 -7.640625 L 27.875 0 L 4.203125 0 L 4.203125 -35.875 L 27.375 -35.875 L 27.375 -28.234375 L 13.171875 -28.234375 L 13.171875 -22.03125 L 26.859375 -22.03125 L 26.859375 -14.609375 Z M 13.171875 -14.609375 "/></g></g></g><g fill="#ffffff" fill-opacity="1"><g transform="translate(202.450771, 44.470925)"><g><path d="M 21.3125 0.671875 C 17.863281 0.671875 14.660156 -0.101562 11.703125 -1.65625 C 8.753906 -3.21875 6.40625 -5.414062 4.65625 -8.25 C 2.914062 -11.082031 2.046875 -14.3125 2.046875 -17.9375 C 2.046875 -21.5625 2.914062 -24.789062 4.65625 -27.625 C 6.40625 -30.457031 8.753906 -32.648438 11.703125 -34.203125 C 14.660156 -35.765625 17.863281 -36.546875 21.3125 -36.546875 C 24.769531 -36.546875 27.972656 -35.765625 30.921875 -34.203125 C 33.878906 -32.648438 36.226562 -30.457031 37.96875 -27.625 C 39.71875 -24.789062 40.59375 -21.5625 40.59375 -17.9375 C 40.59375 -14.3125 39.71875 -11.082031 37.96875 -8.25 C 36.226562 -5.414062 33.878906 -3.21875 30.921875 -1.65625 C 27.972656 -0.101562 24.769531 0.671875 21.3125 0.671875 Z M 21.3125 -7.53125 C 23.226562 -7.53125 24.960938 -7.972656 26.515625 -8.859375 C 28.078125 -9.753906 29.289062 -10.984375 30.15625 -12.546875 C 31.03125 -14.117188 31.46875 -15.914062 31.46875 -17.9375 C 31.46875 -19.957031 31.03125 -21.75 30.15625 -23.3125 C 29.289062 -24.882812 28.078125 -26.113281 26.515625 -27 C 24.960938 -27.894531 23.226562 -28.34375 21.3125 -28.34375 C 19.40625 -28.34375 17.671875 -27.894531 16.109375 -27 C 14.554688 -26.113281 13.34375 -24.882812 12.46875 -23.3125 C 11.601562 -21.75 11.171875 -19.957031 11.171875 -17.9375 C 11.171875 -15.914062 11.601562 -14.117188 12.46875 -12.546875 C 13.34375 -10.984375 14.554688 -9.753906 16.109375 -8.859375 C 17.671875 -7.972656 19.40625 -7.53125 21.3125 -7.53125 Z M 21.3125 -7.53125 "/></g></g></g><g fill="#ffffff" fill-opacity="1"><g transform="translate(245.058149, 44.470925)"><g><path d="M 26.5 0 L 4.203125 0 L 4.203125 -35.875 L 13.171875 -35.875 L 13.171875 -8.09375 L 26.5 -8.09375 Z M 26.5 0 "/></g></g></g><g fill="#ffffff" fill-opacity="1"><g transform="translate(269.688551, 44.470925)"><g><path d="M 16.25 -22.5 L 22.8125 -35.875 L 32.390625 -35.875 L 20.609375 -13.84375 L 20.609375 0 L 11.640625 0 L 11.640625 -13.84375 L -0.046875 -35.875 L 9.6875 -35.875 Z M 16.25 -22.5 "/></g></g></g><g fill="#ffffff" fill-opacity="1"><g transform="translate(302.040514, 44.470925)"><g/></g></g><g clip-path="url(#45643f2d84)"><path fill="#ffffff" d="M 138.332031 37.894531 L 138.332031 23.113281 C 138.332031 21.625 138.972656 20.257812 140.070312 19.320312 L 140.070312 14.097656 C 140.070312 13.199219 140.804688 12.46875 141.699219 12.46875 L 141.703125 12.46875 C 142.597656 12.46875 143.328125 13.199219 143.328125 14.097656 L 143.328125 18.113281 C 144.1875 18.113281 145.042969 18.335938 145.824219 18.789062 L 146.582031 19.226562 L 146.582031 17.472656 C 146.582031 16.574219 147.316406 15.84375 148.210938 15.84375 C 149.109375 15.84375 149.839844 16.574219 149.839844 17.472656 L 149.839844 21.105469 L 153.09375 22.984375 L 153.09375 14.097656 C 153.09375 13.199219 153.828125 12.46875 154.722656 12.46875 C 155.621094 12.46875 156.351562 13.199219 156.351562 14.097656 L 156.351562 24.867188 L 158.625 26.175781 C 158.984375 26.386719 159.316406 26.636719 159.605469 26.917969 L 159.605469 19.933594 C 159.605469 19.039062 160.339844 18.304688 161.234375 18.304688 C 162.132812 18.304688 162.863281 19.039062 162.863281 19.933594 L 162.863281 41.070312 C 162.863281 41.96875 162.132812 42.699219 161.234375 42.699219 C 160.339844 42.699219 159.605469 41.96875 159.605469 41.070312 L 159.605469 34.089844 C 159.316406 34.367188 158.984375 34.617188 158.625 34.828125 L 156.351562 36.136719 L 156.351562 46.910156 C 156.351562 47.804688 155.621094 48.539062 154.722656 48.539062 C 153.828125 48.539062 153.09375 47.804688 153.09375 46.910156 L 153.09375 38.019531 L 149.839844 39.898438 L 149.839844 43.535156 C 149.839844 44.429688 149.109375 45.164062 148.214844 45.164062 L 148.210938 45.164062 C 147.316406 45.164062 146.585938 44.429688 146.585938 43.535156 L 146.585938 41.777344 L 145.824219 42.21875 C 145.042969 42.667969 144.1875 42.894531 143.328125 42.894531 L 143.328125 46.910156 C 143.328125 47.804688 142.597656 48.539062 141.703125 48.539062 L 141.699219 48.539062 C 140.804688 48.539062 140.074219 47.804688 140.074219 46.910156 L 140.074219 41.683594 C 138.972656 40.746094 138.332031 39.378906 138.332031 37.894531 Z M 138.332031 37.894531 " fill-opacity="1" fill-rule="nonzero"/></g><path fill="#7c3aed" d="M 141.585938 37.894531 L 141.585938 23.113281 C 141.585938 22.472656 141.902344 21.925781 142.457031 21.605469 L 142.480469 21.589844 L 142.507812 21.578125 L 142.523438 21.570312 L 142.546875 21.554688 L 142.558594 21.550781 L 142.5625 21.550781 L 142.585938 21.535156 L 142.601562 21.53125 L 142.613281 21.523438 L 142.628906 21.519531 L 142.640625 21.511719 L 142.652344 21.507812 L 142.667969 21.5 L 142.679688 21.496094 L 142.691406 21.488281 L 142.695312 21.488281 L 142.71875 21.480469 L 142.722656 21.480469 L 142.734375 21.472656 L 142.746094 21.46875 L 142.75 21.46875 L 142.773438 21.460938 L 142.777344 21.460938 L 142.789062 21.453125 L 142.800781 21.449219 L 142.804688 21.449219 L 142.828125 21.441406 L 142.832031 21.441406 L 142.855469 21.433594 L 142.859375 21.433594 L 142.882812 21.425781 L 142.886719 21.425781 L 142.910156 21.417969 L 142.914062 21.417969 L 142.9375 21.410156 L 142.941406 21.410156 L 142.953125 21.40625 L 142.96875 21.40625 L 142.992188 21.398438 L 143.007812 21.398438 L 143.019531 21.394531 L 143.023438 21.394531 L 143.039062 21.390625 L 143.050781 21.390625 L 143.066406 21.386719 L 143.078125 21.386719 L 143.078125 21.382812 L 143.105469 21.382812 L 143.105469 21.378906 L 143.132812 21.378906 L 143.148438 21.375 L 143.164062 21.375 L 143.175781 21.371094 L 143.21875 21.371094 L 143.230469 21.367188 L 143.328125 21.367188 C 143.625 21.367188 143.921875 21.445312 144.195312 21.605469 L 146.585938 22.984375 L 149.839844 24.867188 L 153.09375 26.742188 L 156.351562 28.625 L 156.996094 28.996094 C 157.550781 29.316406 157.867188 29.863281 157.867188 30.503906 C 157.867188 31.140625 157.550781 31.691406 156.996094 32.011719 L 156.351562 32.382812 L 153.09375 34.261719 L 146.585938 38.019531 L 144.195312 39.398438 C 143.921875 39.558594 143.625 39.636719 143.328125 39.640625 L 143.273438 39.640625 L 143.269531 39.636719 L 143.203125 39.636719 L 143.191406 39.632812 L 143.160156 39.632812 L 143.148438 39.628906 L 143.132812 39.628906 L 143.121094 39.625 L 143.105469 39.625 L 143.09375 39.621094 L 143.078125 39.621094 L 143.066406 39.617188 L 143.046875 39.617188 L 143.039062 39.613281 L 143.023438 39.609375 L 143.007812 39.609375 L 142.996094 39.605469 L 142.992188 39.605469 L 142.980469 39.601562 L 142.96875 39.601562 L 142.964844 39.597656 L 142.953125 39.597656 L 142.941406 39.59375 L 142.9375 39.59375 L 142.914062 39.585938 L 142.910156 39.585938 L 142.898438 39.582031 L 142.886719 39.582031 L 142.882812 39.578125 L 142.871094 39.578125 L 142.859375 39.574219 L 142.855469 39.570312 L 142.84375 39.570312 L 142.832031 39.5625 L 142.828125 39.5625 L 142.804688 39.554688 L 142.800781 39.554688 L 142.777344 39.546875 L 142.773438 39.546875 L 142.761719 39.542969 L 142.75 39.535156 L 142.746094 39.535156 L 142.722656 39.527344 L 142.71875 39.527344 L 142.707031 39.519531 L 142.695312 39.515625 L 142.691406 39.515625 L 142.679688 39.511719 L 142.667969 39.503906 L 142.652344 39.5 L 142.640625 39.492188 L 142.628906 39.488281 L 142.613281 39.480469 L 142.601562 39.476562 L 142.585938 39.46875 L 142.574219 39.464844 L 142.5625 39.457031 L 142.558594 39.457031 L 142.535156 39.441406 L 142.519531 39.4375 L 142.507812 39.429688 L 142.480469 39.414062 L 142.457031 39.398438 C 141.902344 39.082031 141.585938 38.53125 141.585938 37.894531 " fill-opacity="1" fill-rule="nonzero"/><g clip-path="url(#1cec7ea6cf)"><path fill="#ffffff" d="M 128.777344 25.835938 C 129.652344 25.835938 130.371094 26.550781 130.371094 27.429688 L 130.371094 33.574219 C 130.371094 34.453125 129.652344 35.171875 128.777344 35.171875 C 127.898438 35.171875 127.179688 34.453125 127.179688 33.574219 L 127.179688 27.429688 C 127.179688 26.550781 127.898438 25.835938 128.777344 25.835938 Z M 128.777344 25.835938 " fill-opacity="1" fill-rule="nonzero"/></g><g clip-path="url(#4e7659b718)"><path fill="#ffffff" d="M 167.648438 25.835938 C 166.773438 25.835938 166.054688 26.550781 166.054688 27.429688 L 166.054688 33.574219 C 166.054688 34.453125 166.773438 35.171875 167.648438 35.171875 C 168.527344 35.171875 169.242188 34.453125 169.242188 33.574219 L 169.242188 27.429688 C 169.242188 26.550781 168.527344 25.835938 167.648438 25.835938 Z M 167.648438 25.835938 " fill-opacity="1" fill-rule="nonzero"/></g><path fill="#ffffff" d="M 135.1875 18.304688 L 135.191406 18.304688 C 136.085938 18.304688 136.816406 19.039062 136.816406 19.933594 L 136.816406 41.070312 C 136.816406 41.96875 136.085938 42.699219 135.191406 42.699219 L 135.1875 42.699219 C 134.292969 42.699219 133.5625 41.96875 133.5625 41.070312 L 133.5625 19.933594 C 133.5625 19.039062 134.292969 18.304688 135.1875 18.304688 Z M 135.1875 18.304688 " fill-opacity="1" fill-rule="nonzero"/></svg>